<mxfile host="app.diagrams.net" modified="2023-06-14T18:01:28.042Z" agent="Mozilla/5.0 (Windows NT 10.0; Win64; x64) AppleWebKit/537.36 (KHTML, like Gecko) Chrome/114.0.0.0 Safari/537.36 Edg/114.0.1823.43" etag="xNwpsVhXkBX21q5O6hI0" version="21.3.8" type="github">
  <diagram name="Page-1" id="c37626ed-c26b-45fb-9056-f9ebc6bb27b6">
    <mxGraphModel dx="5156" dy="2570" grid="1" gridSize="10" guides="1" tooltips="1" connect="1" arrows="1" fold="1" page="1" pageScale="1" pageWidth="1100" pageHeight="850" background="none" math="0" shadow="0">
      <root>
        <mxCell id="0" />
        <mxCell id="1" style="" parent="0" />
        <mxCell id="vTYYTcCQBsunpqbKioIv-147" value="" style="whiteSpace=wrap;html=1;dashed=1;" parent="1" vertex="1">
          <mxGeometry x="-292.22999999999996" y="1150" width="578.08" height="223" as="geometry" />
        </mxCell>
        <mxCell id="vTYYTcCQBsunpqbKioIv-161" style="edgeStyle=none;shape=connector;rounded=0;orthogonalLoop=1;jettySize=auto;html=1;exitX=0.5;exitY=1;exitDx=0;exitDy=0;labelBackgroundColor=default;strokeColor=default;fontFamily=Helvetica;fontSize=12;fontColor=default;endArrow=none;strokeWidth=3;startArrow=none;startFill=0;endFill=0;" parent="1" source="vTYYTcCQBsunpqbKioIv-38" target="vTYYTcCQBsunpqbKioIv-94" edge="1">
          <mxGeometry relative="1" as="geometry" />
        </mxCell>
        <mxCell id="vTYYTcCQBsunpqbKioIv-38" value="" style="whiteSpace=wrap;html=1;" parent="1" vertex="1">
          <mxGeometry x="855.42" y="228" width="210" height="65" as="geometry" />
        </mxCell>
        <mxCell id="zVsSm3GNM5P4r3RZKPwx-50" value="" style="whiteSpace=wrap;html=1;fillColor=#CCCCCC;strokeColor=#E6E6E6;" parent="1" vertex="1">
          <mxGeometry x="-281.42999999999995" y="147" width="580" height="240" as="geometry" />
        </mxCell>
        <mxCell id="zVsSm3GNM5P4r3RZKPwx-32" value="" style="whiteSpace=wrap;html=1;dashed=1;" parent="1" vertex="1">
          <mxGeometry x="-280" y="-70" width="580" height="180" as="geometry" />
        </mxCell>
        <mxCell id="vTYYTcCQBsunpqbKioIv-122" style="edgeStyle=none;rounded=0;orthogonalLoop=1;jettySize=auto;html=1;exitX=0.5;exitY=1;exitDx=0;exitDy=0;exitPerimeter=0;fontFamily=Helvetica;fontSize=12;fontColor=default;entryX=0.25;entryY=0;entryDx=0;entryDy=0;strokeWidth=3;startArrow=none;startFill=0;endArrow=none;endFill=0;" parent="1" source="zVsSm3GNM5P4r3RZKPwx-8" target="vTYYTcCQBsunpqbKioIv-16" edge="1">
          <mxGeometry relative="1" as="geometry" />
        </mxCell>
        <mxCell id="vTYYTcCQBsunpqbKioIv-173" style="edgeStyle=none;shape=connector;rounded=0;orthogonalLoop=1;jettySize=auto;html=1;exitX=1;exitY=0.5;exitDx=0;exitDy=0;exitPerimeter=0;labelBackgroundColor=default;strokeColor=default;fontFamily=Helvetica;fontSize=12;fontColor=default;endArrow=none;strokeWidth=3;endFill=0;" parent="1" edge="1">
          <mxGeometry relative="1" as="geometry">
            <mxPoint x="-111.42000000000007" y="289" as="sourcePoint" />
            <mxPoint x="134.78999999999996" y="289" as="targetPoint" />
          </mxGeometry>
        </mxCell>
        <mxCell id="zVsSm3GNM5P4r3RZKPwx-8" value="" style="shape=mxgraph.cisco.security.firewall;html=1;pointerEvents=1;dashed=0;fillColor=#036897;strokeColor=#ffffff;strokeWidth=2;verticalLabelPosition=bottom;verticalAlign=top;align=center;outlineConnect=0;" parent="1" vertex="1">
          <mxGeometry x="-181.85000000000005" y="197" width="70.43" height="140" as="geometry" />
        </mxCell>
        <mxCell id="zVsSm3GNM5P4r3RZKPwx-12" value="G1/0/1" style="text;strokeColor=none;align=center;fillColor=none;html=1;verticalAlign=middle;whiteSpace=wrap;rounded=0;" parent="1" vertex="1">
          <mxGeometry x="-216.41" y="-50" width="60" height="30" as="geometry" />
        </mxCell>
        <mxCell id="zVsSm3GNM5P4r3RZKPwx-13" value="G1/0/3" style="text;strokeColor=none;align=center;fillColor=none;html=1;verticalAlign=middle;whiteSpace=wrap;rounded=0;" parent="1" vertex="1">
          <mxGeometry x="-210" y="60" width="60" height="30" as="geometry" />
        </mxCell>
        <mxCell id="zVsSm3GNM5P4r3RZKPwx-19" value="G2/0/3" style="text;strokeColor=none;align=center;fillColor=none;html=1;verticalAlign=middle;whiteSpace=wrap;rounded=0;" parent="1" vertex="1">
          <mxGeometry x="170" y="60" width="60" height="30" as="geometry" />
        </mxCell>
        <mxCell id="zVsSm3GNM5P4r3RZKPwx-24" value="" style="line;html=1;strokeColor=#FF0000;fillColor=#FF0000;" parent="1" vertex="1">
          <mxGeometry x="-85" y="25" width="181.45" height="10" as="geometry" />
        </mxCell>
        <mxCell id="zVsSm3GNM5P4r3RZKPwx-27" value="" style="line;html=1;strokeColor=#FF0000;fillColor=#FF0000;" parent="1" vertex="1">
          <mxGeometry x="-74" y="-5" width="190" height="10" as="geometry" />
        </mxCell>
        <mxCell id="zVsSm3GNM5P4r3RZKPwx-28" value="&lt;b&gt;&lt;font style=&quot;font-size: 14px;&quot;&gt;STACK&lt;/font&gt;&lt;/b&gt;" style="text;strokeColor=none;align=center;fillColor=none;html=1;verticalAlign=middle;whiteSpace=wrap;rounded=0;" parent="1" vertex="1">
          <mxGeometry x="-20" width="60" height="30" as="geometry" />
        </mxCell>
        <mxCell id="zVsSm3GNM5P4r3RZKPwx-29" value="&lt;font style=&quot;font-size: 36px;&quot;&gt;&lt;b&gt;TEMASEK BRAZIL â€“ Sao Paulo Office&amp;nbsp; &amp;nbsp;&lt;/b&gt;&lt;b&gt;Physical Diagram&lt;/b&gt;&lt;/font&gt;" style="text;strokeColor=none;align=center;fillColor=none;html=1;verticalAlign=middle;whiteSpace=wrap;rounded=0;" parent="1" vertex="1">
          <mxGeometry x="-657" y="-430" width="1300" height="30" as="geometry" />
        </mxCell>
        <mxCell id="zVsSm3GNM5P4r3RZKPwx-43" value="&lt;font style=&quot;font-size: 18px;&quot;&gt;extthbrsp18f001&lt;br&gt;C9300-24T&lt;br&gt;10.230.16.49&lt;/font&gt;" style="text;strokeColor=none;align=center;fillColor=#E6E6E6;html=1;verticalAlign=middle;whiteSpace=wrap;rounded=0;" parent="1" vertex="1">
          <mxGeometry x="-120" y="43.5" width="260" height="87" as="geometry" />
        </mxCell>
        <mxCell id="vTYYTcCQBsunpqbKioIv-123" style="edgeStyle=none;rounded=0;orthogonalLoop=1;jettySize=auto;html=1;exitX=0.5;exitY=1;exitDx=0;exitDy=0;exitPerimeter=0;fontFamily=Helvetica;fontSize=12;fontColor=default;strokeWidth=3;startArrow=none;startFill=0;endArrow=none;endFill=0;entryX=0.798;entryY=0.005;entryDx=0;entryDy=0;entryPerimeter=0;" parent="1" source="zVsSm3GNM5P4r3RZKPwx-52" target="vTYYTcCQBsunpqbKioIv-16" edge="1">
          <mxGeometry relative="1" as="geometry">
            <mxPoint x="170" y="650" as="targetPoint" />
          </mxGeometry>
        </mxCell>
        <mxCell id="zVsSm3GNM5P4r3RZKPwx-52" value="" style="shape=mxgraph.cisco.security.firewall;html=1;pointerEvents=1;dashed=0;fillColor=#036897;strokeColor=#ffffff;strokeWidth=2;verticalLabelPosition=bottom;verticalAlign=top;align=center;outlineConnect=0;" parent="1" vertex="1">
          <mxGeometry x="134.79000000000005" y="197" width="70.43" height="140" as="geometry" />
        </mxCell>
        <mxCell id="zVsSm3GNM5P4r3RZKPwx-55" value="&lt;font style=&quot;font-size: 18px;&quot;&gt;fwthbrspri18f002&lt;br&gt;PAN PA-820&lt;br&gt;10.230.16.23&lt;/font&gt;" style="text;strokeColor=none;align=center;fillColor=#E6E6E6;html=1;verticalAlign=middle;whiteSpace=wrap;rounded=0;" parent="1" vertex="1">
          <mxGeometry x="310.00000000000006" y="147" width="177.83" height="85" as="geometry" />
        </mxCell>
        <mxCell id="zVsSm3GNM5P4r3RZKPwx-56" value="&lt;font style=&quot;font-size: 18px;&quot;&gt;fwthbrspri18f001&lt;br&gt;PAN PA-820&lt;br&gt;10.230.16.22&lt;/font&gt;" style="text;strokeColor=none;align=center;fillColor=#E6E6E6;html=1;verticalAlign=middle;whiteSpace=wrap;rounded=0;" parent="1" vertex="1">
          <mxGeometry x="-470.05999999999995" y="147" width="177.83" height="85" as="geometry" />
        </mxCell>
        <mxCell id="vTYYTcCQBsunpqbKioIv-1" value="&lt;font style=&quot;font-size: 18px;&quot;&gt;50Mbps Internet Link&lt;/font&gt;" style="text;strokeColor=none;align=center;fillColor=none;html=1;verticalAlign=middle;whiteSpace=wrap;rounded=0;" parent="1" vertex="1">
          <mxGeometry x="-120" y="-135" width="197.17" height="30" as="geometry" />
        </mxCell>
        <mxCell id="vTYYTcCQBsunpqbKioIv-4" value="E1/1" style="text;strokeColor=none;align=center;fillColor=none;html=1;verticalAlign=middle;whiteSpace=wrap;rounded=0;" parent="1" vertex="1">
          <mxGeometry x="-145" y="158" width="60" height="30" as="geometry" />
        </mxCell>
        <mxCell id="vTYYTcCQBsunpqbKioIv-5" value="E1/2" style="text;strokeColor=none;align=center;fillColor=none;html=1;verticalAlign=middle;whiteSpace=wrap;rounded=0;" parent="1" vertex="1">
          <mxGeometry x="-205.00000000000003" y="350" width="60" height="30" as="geometry" />
        </mxCell>
        <mxCell id="vTYYTcCQBsunpqbKioIv-8" value="E1/1" style="text;strokeColor=none;align=center;fillColor=none;html=1;verticalAlign=middle;whiteSpace=wrap;rounded=0;" parent="1" vertex="1">
          <mxGeometry x="109.99999999999997" y="158" width="60" height="30" as="geometry" />
        </mxCell>
        <mxCell id="vTYYTcCQBsunpqbKioIv-9" value="E1/2" style="text;strokeColor=none;align=center;fillColor=none;html=1;verticalAlign=middle;whiteSpace=wrap;rounded=0;" parent="1" vertex="1">
          <mxGeometry x="169.99999999999997" y="350" width="60" height="30" as="geometry" />
        </mxCell>
        <mxCell id="vTYYTcCQBsunpqbKioIv-12" value="&lt;b&gt;&lt;font style=&quot;font-size: 14px;&quot;&gt;HA1&lt;/font&gt;&lt;/b&gt;" style="text;strokeColor=none;align=center;fillColor=none;html=1;verticalAlign=middle;whiteSpace=wrap;rounded=0;" parent="1" vertex="1">
          <mxGeometry x="-33.33" y="218" width="62.82" height="30" as="geometry" />
        </mxCell>
        <mxCell id="vTYYTcCQBsunpqbKioIv-13" value="&lt;b&gt;&lt;font style=&quot;font-size: 14px;&quot;&gt;HA2&lt;/font&gt;&lt;/b&gt;" style="text;strokeColor=none;align=center;fillColor=none;html=1;verticalAlign=middle;whiteSpace=wrap;rounded=0;" parent="1" vertex="1">
          <mxGeometry x="-30.830000000000013" y="263" width="60" height="30" as="geometry" />
        </mxCell>
        <mxCell id="vTYYTcCQBsunpqbKioIv-14" value="&lt;font style=&quot;font-size: 18px;&quot;&gt;&lt;b&gt;INTERNET&lt;/b&gt;&lt;/font&gt;" style="text;strokeColor=none;align=center;fillColor=none;html=1;verticalAlign=middle;whiteSpace=wrap;rounded=0;" parent="1" vertex="1">
          <mxGeometry x="-104.34000000000003" y="-240" width="197.17" height="30" as="geometry" />
        </mxCell>
        <mxCell id="vTYYTcCQBsunpqbKioIv-150" style="edgeStyle=none;shape=connector;rounded=0;orthogonalLoop=1;jettySize=auto;html=1;exitX=0.174;exitY=1.004;exitDx=0;exitDy=0;labelBackgroundColor=default;strokeColor=default;fontFamily=Helvetica;fontSize=12;fontColor=default;endArrow=none;exitPerimeter=0;strokeWidth=3;startArrow=none;startFill=0;endFill=0;" parent="1" source="vTYYTcCQBsunpqbKioIv-16" edge="1">
          <mxGeometry relative="1" as="geometry">
            <mxPoint x="-190" y="1150" as="targetPoint" />
          </mxGeometry>
        </mxCell>
        <mxCell id="vTYYTcCQBsunpqbKioIv-151" style="edgeStyle=none;shape=connector;rounded=0;orthogonalLoop=1;jettySize=auto;html=1;exitX=0.244;exitY=1.001;exitDx=0;exitDy=0;labelBackgroundColor=default;strokeColor=default;fontFamily=Helvetica;fontSize=12;fontColor=default;endArrow=none;strokeWidth=3;startArrow=none;startFill=0;endFill=0;exitPerimeter=0;" parent="1" source="vTYYTcCQBsunpqbKioIv-16" edge="1">
          <mxGeometry relative="1" as="geometry">
            <mxPoint x="-150" y="1150" as="targetPoint" />
          </mxGeometry>
        </mxCell>
        <mxCell id="vTYYTcCQBsunpqbKioIv-152" style="edgeStyle=none;shape=connector;rounded=0;orthogonalLoop=1;jettySize=auto;html=1;exitX=0.813;exitY=1.004;exitDx=0;exitDy=0;labelBackgroundColor=default;strokeColor=default;fontFamily=Helvetica;fontSize=12;fontColor=default;endArrow=none;exitPerimeter=0;strokeWidth=3;startArrow=none;startFill=0;endFill=0;" parent="1" source="vTYYTcCQBsunpqbKioIv-16" edge="1">
          <mxGeometry relative="1" as="geometry">
            <mxPoint x="180" y="1150" as="targetPoint" />
          </mxGeometry>
        </mxCell>
        <mxCell id="vTYYTcCQBsunpqbKioIv-153" style="edgeStyle=none;shape=connector;rounded=0;orthogonalLoop=1;jettySize=auto;html=1;exitX=0.744;exitY=1.002;exitDx=0;exitDy=0;entryX=0.746;entryY=0.001;entryDx=0;entryDy=0;labelBackgroundColor=default;strokeColor=default;fontFamily=Helvetica;fontSize=12;fontColor=default;endArrow=none;strokeWidth=3;startArrow=none;startFill=0;endFill=0;exitPerimeter=0;entryPerimeter=0;" parent="1" source="vTYYTcCQBsunpqbKioIv-16" target="vTYYTcCQBsunpqbKioIv-147" edge="1">
          <mxGeometry relative="1" as="geometry" />
        </mxCell>
        <mxCell id="vTYYTcCQBsunpqbKioIv-16" value="" style="whiteSpace=wrap;html=1;dashed=1;" parent="1" vertex="1">
          <mxGeometry x="-290.96" y="669" width="578.08" height="223" as="geometry" />
        </mxCell>
        <mxCell id="vTYYTcCQBsunpqbKioIv-24" value="" style="line;html=1;strokeColor=#FF0000;fillColor=#FF0000;" parent="1" vertex="1">
          <mxGeometry x="-111.41999999999999" y="790.5" width="192.46" height="10" as="geometry" />
        </mxCell>
        <mxCell id="vTYYTcCQBsunpqbKioIv-25" value="" style="line;html=1;strokeColor=#FF0000;fillColor=#FF0000;" parent="1" vertex="1">
          <mxGeometry x="-110.02999999999999" y="760.5" width="190" height="10" as="geometry" />
        </mxCell>
        <mxCell id="vTYYTcCQBsunpqbKioIv-26" value="&lt;b&gt;&lt;font style=&quot;font-size: 14px;&quot;&gt;STACK&lt;/font&gt;&lt;/b&gt;" style="text;strokeColor=none;align=center;fillColor=none;html=1;verticalAlign=middle;whiteSpace=wrap;rounded=0;" parent="1" vertex="1">
          <mxGeometry x="-47.190000000000005" y="765.5" width="60" height="30" as="geometry" />
        </mxCell>
        <mxCell id="vTYYTcCQBsunpqbKioIv-27" value="G1/0/9&lt;br&gt;Trunk" style="text;strokeColor=none;align=center;fillColor=none;html=1;verticalAlign=middle;whiteSpace=wrap;rounded=0;" parent="1" vertex="1">
          <mxGeometry x="-144" y="637" width="60" height="30" as="geometry" />
        </mxCell>
        <mxCell id="vTYYTcCQBsunpqbKioIv-30" value="G2/0/9&lt;br&gt;Trunk" style="text;strokeColor=none;align=center;fillColor=none;html=1;verticalAlign=middle;whiteSpace=wrap;rounded=0;" parent="1" vertex="1">
          <mxGeometry x="108" y="637" width="60" height="30" as="geometry" />
        </mxCell>
        <mxCell id="vTYYTcCQBsunpqbKioIv-32" value="&lt;font style=&quot;font-size: 18px;&quot;&gt;csthbrsp18f001&lt;br&gt;C9300-48P&lt;br&gt;10.230.16.33&lt;/font&gt;" style="text;strokeColor=none;align=center;fillColor=#E6E6E6;html=1;verticalAlign=middle;whiteSpace=wrap;rounded=0;" parent="1" vertex="1">
          <mxGeometry x="-130" y="830" width="250" height="80" as="geometry" />
        </mxCell>
        <mxCell id="vTYYTcCQBsunpqbKioIv-160" style="edgeStyle=none;shape=connector;rounded=0;orthogonalLoop=1;jettySize=auto;html=1;exitX=0.504;exitY=1.002;exitDx=0;exitDy=0;exitPerimeter=0;entryX=0.5;entryY=0;entryDx=0;entryDy=0;labelBackgroundColor=default;strokeColor=default;fontFamily=Helvetica;fontSize=12;fontColor=default;endArrow=none;strokeWidth=3;startArrow=none;startFill=0;endFill=0;" parent="1" source="vTYYTcCQBsunpqbKioIv-33" target="vTYYTcCQBsunpqbKioIv-38" edge="1">
          <mxGeometry relative="1" as="geometry" />
        </mxCell>
        <mxCell id="vTYYTcCQBsunpqbKioIv-33" value="" style="sketch=0;aspect=fixed;pointerEvents=1;shadow=0;dashed=0;html=1;strokeColor=none;labelPosition=center;verticalLabelPosition=bottom;verticalAlign=top;align=center;fillColor=#00188D;shape=mxgraph.mscae.enterprise.internet_hollow" parent="1" vertex="1">
          <mxGeometry x="808.3299999999999" y="-145.10000000000002" width="304.19" height="188.6" as="geometry" />
        </mxCell>
        <mxCell id="vTYYTcCQBsunpqbKioIv-34" value="&lt;font style=&quot;font-size: 18px;&quot;&gt;&lt;b&gt;Aryaka Network&lt;/b&gt;&lt;br&gt;(WSUS Update, Asigra, Avamar)&lt;br&gt;&lt;/font&gt;" style="text;strokeColor=none;align=center;fillColor=none;html=1;verticalAlign=middle;whiteSpace=wrap;rounded=0;" parent="1" vertex="1">
          <mxGeometry x="815.4199999999998" y="-45" width="290" height="30" as="geometry" />
        </mxCell>
        <mxCell id="vTYYTcCQBsunpqbKioIv-136" style="edgeStyle=none;rounded=0;orthogonalLoop=1;jettySize=auto;html=1;exitX=0.13;exitY=1;exitDx=0;exitDy=0;exitPerimeter=0;entryX=0.5;entryY=0;entryDx=0;entryDy=0;entryPerimeter=0;fontFamily=Helvetica;fontSize=12;fontColor=default;strokeWidth=3;startArrow=none;startFill=0;endArrow=none;endFill=0;" parent="1" source="vTYYTcCQBsunpqbKioIv-35" target="zVsSm3GNM5P4r3RZKPwx-3" edge="1">
          <mxGeometry relative="1" as="geometry" />
        </mxCell>
        <mxCell id="vTYYTcCQBsunpqbKioIv-35" value="" style="sketch=0;aspect=fixed;pointerEvents=1;shadow=0;dashed=0;html=1;strokeColor=none;labelPosition=center;verticalLabelPosition=bottom;verticalAlign=top;align=center;fillColor=#00188D;shape=mxgraph.mscae.enterprise.internet_hollow" parent="1" vertex="1">
          <mxGeometry x="-159.09000000000003" y="-350" width="304.19" height="188.6" as="geometry" />
        </mxCell>
        <mxCell id="vTYYTcCQBsunpqbKioIv-37" value="&lt;font style=&quot;font-size: 18px;&quot;&gt;ANAP&lt;/font&gt;" style="text;strokeColor=none;align=center;fillColor=none;html=1;verticalAlign=middle;whiteSpace=wrap;rounded=0;shadow=1;" parent="1" vertex="1">
          <mxGeometry x="855.42" y="245.50000000000003" width="197.17" height="30" as="geometry" />
        </mxCell>
        <mxCell id="vTYYTcCQBsunpqbKioIv-41" value="&lt;font style=&quot;font-size: 18px;&quot;&gt;20Mbps Link&lt;/font&gt;" style="text;strokeColor=none;align=center;fillColor=none;html=1;verticalAlign=middle;whiteSpace=wrap;rounded=0;" parent="1" vertex="1">
          <mxGeometry x="962.91" y="117.00000000000003" width="127.17" height="30" as="geometry" />
        </mxCell>
        <mxCell id="vTYYTcCQBsunpqbKioIv-43" value="M1" style="text;strokeColor=none;align=center;fillColor=none;html=1;verticalAlign=middle;whiteSpace=wrap;rounded=0;" parent="1" vertex="1">
          <mxGeometry x="962.91" y="195.00000000000003" width="60" height="30" as="geometry" />
        </mxCell>
        <mxCell id="vTYYTcCQBsunpqbKioIv-44" value="LAN Port" style="text;strokeColor=none;align=center;fillColor=none;html=1;verticalAlign=middle;whiteSpace=wrap;rounded=0;" parent="1" vertex="1">
          <mxGeometry x="962.91" y="295" width="60" height="30" as="geometry" />
        </mxCell>
        <mxCell id="vTYYTcCQBsunpqbKioIv-45" value="&lt;font style=&quot;font-size: 18px;&quot;&gt;Aryaka &lt;br&gt;ANAP3000&lt;/font&gt;" style="text;strokeColor=none;align=center;fillColor=#E6E6E6;html=1;verticalAlign=middle;whiteSpace=wrap;rounded=0;" parent="1" vertex="1">
          <mxGeometry x="1080" y="218" width="177.83" height="85" as="geometry" />
        </mxCell>
        <mxCell id="vTYYTcCQBsunpqbKioIv-104" style="edgeStyle=none;rounded=1;orthogonalLoop=1;jettySize=auto;html=1;exitX=0.5;exitY=1;exitDx=0;exitDy=0;exitPerimeter=0;strokeColor=none;" parent="1" source="vTYYTcCQBsunpqbKioIv-47" target="vTYYTcCQBsunpqbKioIv-58" edge="1">
          <mxGeometry relative="1" as="geometry" />
        </mxCell>
        <mxCell id="vTYYTcCQBsunpqbKioIv-105" style="edgeStyle=none;orthogonalLoop=1;jettySize=auto;html=1;exitX=0.5;exitY=1;exitDx=0;exitDy=0;exitPerimeter=0;rounded=0;strokeColor=default;shadow=0;jumpStyle=none;endArrow=none;endFill=0;strokeWidth=3;startArrow=none;startFill=0;" parent="1" source="vTYYTcCQBsunpqbKioIv-47" target="vTYYTcCQBsunpqbKioIv-58" edge="1">
          <mxGeometry relative="1" as="geometry" />
        </mxCell>
        <mxCell id="vTYYTcCQBsunpqbKioIv-47" value="" style="sketch=0;aspect=fixed;pointerEvents=1;shadow=0;dashed=0;html=1;strokeColor=none;labelPosition=center;verticalLabelPosition=bottom;verticalAlign=top;align=center;fillColor=#00188D;shape=mxgraph.mscae.enterprise.internet_hollow" parent="1" vertex="1">
          <mxGeometry x="-1026.62" y="-145.10000000000002" width="304.19" height="188.6" as="geometry" />
        </mxCell>
        <mxCell id="vTYYTcCQBsunpqbKioIv-48" value="&lt;font style=&quot;font-size: 18px;&quot;&gt;&lt;b&gt;SingTel MPLS &lt;/b&gt;&lt;br&gt;(Email, VC, S4B, Shared Drives &lt;br&gt;and others)&amp;nbsp;&lt;br&gt;&lt;/font&gt;" style="text;strokeColor=none;align=center;fillColor=none;html=1;verticalAlign=middle;whiteSpace=wrap;rounded=0;" parent="1" vertex="1">
          <mxGeometry x="-1021.01" y="-35" width="290" height="30" as="geometry" />
        </mxCell>
        <mxCell id="vTYYTcCQBsunpqbKioIv-51" value="&lt;font style=&quot;font-size: 18px;&quot;&gt;20Mbps Link&lt;/font&gt;" style="text;strokeColor=none;align=center;fillColor=none;html=1;verticalAlign=middle;whiteSpace=wrap;rounded=0;" parent="1" vertex="1">
          <mxGeometry x="-999.9999999999998" y="111" width="127.17" height="30" as="geometry" />
        </mxCell>
        <mxCell id="vTYYTcCQBsunpqbKioIv-108" style="edgeStyle=none;rounded=0;orthogonalLoop=1;jettySize=auto;html=1;exitX=0.88;exitY=0.1;exitDx=0;exitDy=0;exitPerimeter=0;entryX=0.12;entryY=0.1;entryDx=0;entryDy=0;entryPerimeter=0;fontFamily=Helvetica;fontSize=12;fontColor=default;strokeWidth=3;startArrow=none;startFill=0;endArrow=none;endFill=0;" parent="1" source="vTYYTcCQBsunpqbKioIv-58" target="vTYYTcCQBsunpqbKioIv-94" edge="1">
          <mxGeometry relative="1" as="geometry" />
        </mxCell>
        <mxCell id="vTYYTcCQBsunpqbKioIv-109" style="edgeStyle=orthogonalEdgeStyle;rounded=0;orthogonalLoop=1;jettySize=auto;html=1;exitX=1;exitY=0.5;exitDx=0;exitDy=0;exitPerimeter=0;entryX=0.145;entryY=-0.005;entryDx=0;entryDy=0;entryPerimeter=0;fontFamily=Helvetica;fontSize=12;fontColor=default;strokeWidth=3;startArrow=none;startFill=0;endArrow=none;endFill=0;" parent="1" source="vTYYTcCQBsunpqbKioIv-58" target="vTYYTcCQBsunpqbKioIv-16" edge="1">
          <mxGeometry relative="1" as="geometry" />
        </mxCell>
        <mxCell id="vTYYTcCQBsunpqbKioIv-110" style="edgeStyle=orthogonalEdgeStyle;rounded=0;orthogonalLoop=1;jettySize=auto;html=1;exitX=0.88;exitY=0.9;exitDx=0;exitDy=0;exitPerimeter=0;entryX=0.076;entryY=0.004;entryDx=0;entryDy=0;entryPerimeter=0;fontFamily=Helvetica;fontSize=12;fontColor=default;strokeWidth=3;startArrow=none;startFill=0;endArrow=none;endFill=0;" parent="1" source="vTYYTcCQBsunpqbKioIv-58" target="vTYYTcCQBsunpqbKioIv-16" edge="1">
          <mxGeometry relative="1" as="geometry" />
        </mxCell>
        <mxCell id="vTYYTcCQBsunpqbKioIv-111" style="edgeStyle=orthogonalEdgeStyle;rounded=0;orthogonalLoop=1;jettySize=auto;html=1;exitX=0.5;exitY=1;exitDx=0;exitDy=0;exitPerimeter=0;entryX=0;entryY=0.087;entryDx=0;entryDy=0;entryPerimeter=0;fontFamily=Helvetica;fontSize=12;fontColor=default;strokeWidth=3;startArrow=none;startFill=0;endArrow=none;endFill=0;" parent="1" source="vTYYTcCQBsunpqbKioIv-58" target="vTYYTcCQBsunpqbKioIv-16" edge="1">
          <mxGeometry relative="1" as="geometry" />
        </mxCell>
        <mxCell id="vTYYTcCQBsunpqbKioIv-58" value="" style="shape=mxgraph.cisco.routers.router;html=1;pointerEvents=1;dashed=0;fillColor=#036897;strokeColor=#ffffff;strokeWidth=2;verticalLabelPosition=bottom;verticalAlign=top;align=center;outlineConnect=0;" parent="1" vertex="1">
          <mxGeometry x="-940" y="464.48" width="127.98" height="120" as="geometry" />
        </mxCell>
        <mxCell id="vTYYTcCQBsunpqbKioIv-60" value="&lt;font style=&quot;font-size: 18px;&quot;&gt;wrthbrsp18f01&lt;br&gt;vEdge 1000 &lt;br&gt;10.230.212.71&lt;/font&gt;" style="text;strokeColor=none;align=center;fillColor=#E6E6E6;html=1;verticalAlign=middle;whiteSpace=wrap;rounded=0;" parent="1" vertex="1">
          <mxGeometry x="-1130" y="472.52" width="177.83" height="85" as="geometry" />
        </mxCell>
        <mxCell id="vTYYTcCQBsunpqbKioIv-71" value="G0/2 &lt;br/&gt;" style="text;strokeColor=none;align=center;fillColor=none;html=1;verticalAlign=middle;whiteSpace=wrap;rounded=0;" parent="1" vertex="1">
          <mxGeometry x="-812" y="492.02" width="60" height="30" as="geometry" />
        </mxCell>
        <mxCell id="vTYYTcCQBsunpqbKioIv-72" value="G0/1 &lt;br/&gt;" style="text;strokeColor=none;align=center;fillColor=none;html=1;verticalAlign=middle;whiteSpace=wrap;rounded=0;" parent="1" vertex="1">
          <mxGeometry x="-812.02" y="444.52" width="60" height="30" as="geometry" />
        </mxCell>
        <mxCell id="vTYYTcCQBsunpqbKioIv-78" value="G0/3" style="text;strokeColor=none;align=center;fillColor=none;html=1;verticalAlign=middle;whiteSpace=wrap;rounded=0;" parent="1" vertex="1">
          <mxGeometry x="-812" y="540" width="60" height="30" as="geometry" />
        </mxCell>
        <mxCell id="vTYYTcCQBsunpqbKioIv-79" value="G0/0&lt;br/&gt;" style="text;strokeColor=none;align=center;fillColor=none;html=1;verticalAlign=middle;whiteSpace=wrap;rounded=0;" parent="1" vertex="1">
          <mxGeometry x="-940" y="428.24" width="60" height="30" as="geometry" />
        </mxCell>
        <mxCell id="vTYYTcCQBsunpqbKioIv-83" value="MGMT0" style="text;strokeColor=none;align=center;fillColor=none;html=1;verticalAlign=middle;whiteSpace=wrap;rounded=0;" parent="1" vertex="1">
          <mxGeometry x="-812.02" y="656" width="60" height="30" as="geometry" />
        </mxCell>
        <mxCell id="vTYYTcCQBsunpqbKioIv-112" style="edgeStyle=orthogonalEdgeStyle;rounded=0;orthogonalLoop=1;jettySize=auto;html=1;exitX=0;exitY=0.5;exitDx=0;exitDy=0;exitPerimeter=0;entryX=0.858;entryY=-0.002;entryDx=0;entryDy=0;fontFamily=Helvetica;fontSize=12;fontColor=default;strokeWidth=3;startArrow=none;startFill=0;endArrow=none;endFill=0;entryPerimeter=0;" parent="1" source="vTYYTcCQBsunpqbKioIv-94" target="vTYYTcCQBsunpqbKioIv-16" edge="1">
          <mxGeometry relative="1" as="geometry" />
        </mxCell>
        <mxCell id="vTYYTcCQBsunpqbKioIv-113" style="edgeStyle=orthogonalEdgeStyle;rounded=0;orthogonalLoop=1;jettySize=auto;html=1;exitX=0.12;exitY=0.9;exitDx=0;exitDy=0;exitPerimeter=0;entryX=0.942;entryY=-0.009;entryDx=0;entryDy=0;entryPerimeter=0;fontFamily=Helvetica;fontSize=12;fontColor=default;strokeWidth=3;startArrow=none;startFill=0;endArrow=none;endFill=0;" parent="1" source="vTYYTcCQBsunpqbKioIv-94" target="vTYYTcCQBsunpqbKioIv-16" edge="1">
          <mxGeometry relative="1" as="geometry" />
        </mxCell>
        <mxCell id="vTYYTcCQBsunpqbKioIv-114" style="edgeStyle=orthogonalEdgeStyle;rounded=0;orthogonalLoop=1;jettySize=auto;html=1;exitX=0.5;exitY=1;exitDx=0;exitDy=0;exitPerimeter=0;fontFamily=Helvetica;fontSize=12;fontColor=default;strokeWidth=3;startArrow=none;startFill=0;endArrow=none;endFill=0;" parent="1" source="vTYYTcCQBsunpqbKioIv-94" target="vTYYTcCQBsunpqbKioIv-16" edge="1">
          <mxGeometry relative="1" as="geometry">
            <Array as="points">
              <mxPoint x="947" y="587" />
              <mxPoint x="947" y="690" />
            </Array>
          </mxGeometry>
        </mxCell>
        <mxCell id="vTYYTcCQBsunpqbKioIv-94" value="" style="shape=mxgraph.cisco.routers.router;html=1;pointerEvents=1;dashed=0;fillColor=#036897;strokeColor=#ffffff;strokeWidth=2;verticalLabelPosition=bottom;verticalAlign=top;align=center;outlineConnect=0;" parent="1" vertex="1">
          <mxGeometry x="894.9300000000001" y="467.20000000000005" width="127.98" height="120" as="geometry" />
        </mxCell>
        <mxCell id="vTYYTcCQBsunpqbKioIv-95" value="G0/2 &lt;br/&gt;" style="text;strokeColor=none;align=center;fillColor=none;html=1;verticalAlign=middle;whiteSpace=wrap;rounded=0;" parent="1" vertex="1">
          <mxGeometry x="832.9300000000001" y="494.02" width="60" height="30" as="geometry" />
        </mxCell>
        <mxCell id="vTYYTcCQBsunpqbKioIv-96" value="G0/1 &lt;br/&gt;" style="text;strokeColor=none;align=center;fillColor=none;html=1;verticalAlign=middle;whiteSpace=wrap;rounded=0;" parent="1" vertex="1">
          <mxGeometry x="832.93" y="446.52" width="60" height="30" as="geometry" />
        </mxCell>
        <mxCell id="vTYYTcCQBsunpqbKioIv-97" value="G0/3" style="text;strokeColor=none;align=center;fillColor=none;html=1;verticalAlign=middle;whiteSpace=wrap;rounded=0;" parent="1" vertex="1">
          <mxGeometry x="832.9300000000001" y="542" width="60" height="30" as="geometry" />
        </mxCell>
        <mxCell id="vTYYTcCQBsunpqbKioIv-98" value="G0/0&lt;br/&gt;" style="text;strokeColor=none;align=center;fillColor=none;html=1;verticalAlign=middle;whiteSpace=wrap;rounded=0;" parent="1" vertex="1">
          <mxGeometry x="962.9100000000001" y="435.48" width="60" height="30" as="geometry" />
        </mxCell>
        <mxCell id="vTYYTcCQBsunpqbKioIv-99" value="MGMT0" style="text;strokeColor=none;align=center;fillColor=none;html=1;verticalAlign=middle;whiteSpace=wrap;rounded=0;" parent="1" vertex="1">
          <mxGeometry x="832.93" y="653.28" width="60" height="34.72" as="geometry" />
        </mxCell>
        <mxCell id="vTYYTcCQBsunpqbKioIv-138" style="edgeStyle=orthogonalEdgeStyle;rounded=0;orthogonalLoop=1;jettySize=auto;html=1;exitX=0.5;exitY=0;exitDx=0;exitDy=0;exitPerimeter=0;entryX=-0.001;entryY=0.951;entryDx=0;entryDy=0;fontFamily=Helvetica;fontSize=12;fontColor=default;strokeWidth=3;startArrow=none;startFill=0;endArrow=none;endFill=0;entryPerimeter=0;" parent="1" source="vTYYTcCQBsunpqbKioIv-117" target="vTYYTcCQBsunpqbKioIv-16" edge="1">
          <mxGeometry relative="1" as="geometry" />
        </mxCell>
        <mxCell id="vTYYTcCQBsunpqbKioIv-139" style="edgeStyle=orthogonalEdgeStyle;rounded=0;orthogonalLoop=1;jettySize=auto;html=1;exitX=1;exitY=0.5;exitDx=0;exitDy=0;exitPerimeter=0;fontFamily=Helvetica;fontSize=12;fontColor=default;strokeWidth=3;startArrow=none;startFill=0;endArrow=none;endFill=0;entryX=0.018;entryY=1.004;entryDx=0;entryDy=0;entryPerimeter=0;" parent="1" source="vTYYTcCQBsunpqbKioIv-117" target="vTYYTcCQBsunpqbKioIv-16" edge="1">
          <mxGeometry relative="1" as="geometry">
            <mxPoint x="-250" y="900" as="targetPoint" />
          </mxGeometry>
        </mxCell>
        <mxCell id="vTYYTcCQBsunpqbKioIv-154" style="edgeStyle=none;shape=connector;rounded=0;orthogonalLoop=1;jettySize=auto;html=1;labelBackgroundColor=default;strokeColor=#001DBC;fontFamily=Helvetica;fontSize=12;fontColor=default;endArrow=none;dashed=1;strokeWidth=3;endFill=0;fillColor=#0050ef;" parent="1" edge="1">
          <mxGeometry relative="1" as="geometry">
            <mxPoint x="-400" y="1041" as="sourcePoint" />
            <mxPoint x="380" y="1041" as="targetPoint" />
          </mxGeometry>
        </mxCell>
        <mxCell id="vTYYTcCQBsunpqbKioIv-117" value="" style="shape=mxgraph.cisco.misc.wae;html=1;pointerEvents=1;dashed=0;fillColor=#036897;strokeColor=#ffffff;strokeWidth=2;verticalLabelPosition=bottom;verticalAlign=top;align=center;outlineConnect=0;fontFamily=Helvetica;fontSize=12;fontColor=default;" parent="1" vertex="1">
          <mxGeometry x="-490.83" y="993" width="90" height="64" as="geometry" />
        </mxCell>
        <mxCell id="vTYYTcCQBsunpqbKioIv-140" style="edgeStyle=orthogonalEdgeStyle;rounded=0;orthogonalLoop=1;jettySize=auto;html=1;exitX=0.5;exitY=0;exitDx=0;exitDy=0;exitPerimeter=0;entryX=1.001;entryY=0.958;entryDx=0;entryDy=0;fontFamily=Helvetica;fontSize=12;fontColor=default;strokeWidth=3;startArrow=none;startFill=0;endArrow=none;endFill=0;entryPerimeter=0;" parent="1" source="vTYYTcCQBsunpqbKioIv-118" target="vTYYTcCQBsunpqbKioIv-16" edge="1">
          <mxGeometry relative="1" as="geometry" />
        </mxCell>
        <mxCell id="vTYYTcCQBsunpqbKioIv-143" style="edgeStyle=orthogonalEdgeStyle;rounded=0;orthogonalLoop=1;jettySize=auto;html=1;exitX=0;exitY=0.5;exitDx=0;exitDy=0;exitPerimeter=0;entryX=0.984;entryY=1.005;entryDx=0;entryDy=0;entryPerimeter=0;fontFamily=Helvetica;fontSize=12;fontColor=default;strokeWidth=3;startArrow=none;startFill=0;endArrow=none;endFill=0;" parent="1" source="vTYYTcCQBsunpqbKioIv-118" target="vTYYTcCQBsunpqbKioIv-16" edge="1">
          <mxGeometry relative="1" as="geometry" />
        </mxCell>
        <mxCell id="vTYYTcCQBsunpqbKioIv-118" value="" style="shape=mxgraph.cisco.misc.wae;html=1;pointerEvents=1;dashed=0;fillColor=#036897;strokeColor=#ffffff;strokeWidth=2;verticalLabelPosition=bottom;verticalAlign=top;align=center;outlineConnect=0;fontFamily=Helvetica;fontSize=12;fontColor=default;" parent="1" vertex="1">
          <mxGeometry x="390" y="993" width="90" height="64" as="geometry" />
        </mxCell>
        <mxCell id="vTYYTcCQBsunpqbKioIv-120" value="" style="shape=mxgraph.cisco.switches.workgroup_switch;html=1;dashed=0;fillColor=#10739E;strokeColor=#ffffff;strokeWidth=2;verticalLabelPosition=bottom;verticalAlign=top;fontFamily=Helvetica;fontSize=36;fontColor=#FFB366" parent="1" vertex="1">
          <mxGeometry x="-256.40999999999997" y="1220" width="140" height="70" as="geometry" />
        </mxCell>
        <mxCell id="vTYYTcCQBsunpqbKioIv-121" value="" style="shape=mxgraph.cisco.switches.workgroup_switch;html=1;dashed=0;fillColor=#10739E;strokeColor=#ffffff;strokeWidth=2;verticalLabelPosition=bottom;verticalAlign=top;fontFamily=Helvetica;fontSize=36;fontColor=#FFB366" parent="1" vertex="1">
          <mxGeometry x="63.59" y="1220" width="140" height="70" as="geometry" />
        </mxCell>
        <mxCell id="vTYYTcCQBsunpqbKioIv-125" style="edgeStyle=none;rounded=0;orthogonalLoop=1;jettySize=auto;html=1;exitX=1;exitY=0.5;exitDx=0;exitDy=0;exitPerimeter=0;fontFamily=Helvetica;fontSize=12;fontColor=default;" parent="1" source="zVsSm3GNM5P4r3RZKPwx-8" target="zVsSm3GNM5P4r3RZKPwx-8" edge="1">
          <mxGeometry relative="1" as="geometry" />
        </mxCell>
        <mxCell id="vTYYTcCQBsunpqbKioIv-131" style="edgeStyle=none;rounded=0;orthogonalLoop=1;jettySize=auto;html=1;fontFamily=Helvetica;fontSize=12;fontColor=default;exitX=0.538;exitY=1.008;exitDx=0;exitDy=0;exitPerimeter=0;strokeWidth=3;endArrow=none;endFill=0;startArrow=none;startFill=0;" parent="1" source="zVsSm3GNM5P4r3RZKPwx-3" target="zVsSm3GNM5P4r3RZKPwx-8" edge="1">
          <mxGeometry relative="1" as="geometry" />
        </mxCell>
        <mxCell id="vTYYTcCQBsunpqbKioIv-132" style="edgeStyle=none;rounded=0;orthogonalLoop=1;jettySize=auto;html=1;exitX=1;exitY=0;exitDx=0;exitDy=0;exitPerimeter=0;fontFamily=Helvetica;fontSize=12;fontColor=default;" parent="1" source="zVsSm3GNM5P4r3RZKPwx-8" target="zVsSm3GNM5P4r3RZKPwx-8" edge="1">
          <mxGeometry relative="1" as="geometry" />
        </mxCell>
        <mxCell id="vTYYTcCQBsunpqbKioIv-144" value="&lt;font style=&quot;font-size: 18px;&quot;&gt;wathbrsp18f01-WAAS-2&lt;br/&gt;Cisco ENCS-W 5406&lt;br/&gt;10.230.214.101&lt;/font&gt;" style="text;strokeColor=none;align=center;fillColor=#E6E6E6;html=1;verticalAlign=middle;whiteSpace=wrap;rounded=0;" parent="1" vertex="1">
          <mxGeometry x="334" y="1069" width="206.11" height="87" as="geometry" />
        </mxCell>
        <mxCell id="vTYYTcCQBsunpqbKioIv-145" value="&lt;font style=&quot;font-size: 18px;&quot;&gt;wathbrsp18f01-WAAS-1&lt;br/&gt;Cisco ENCS-W 5406&lt;br/&gt;10.230.214.100&lt;/font&gt;" style="text;strokeColor=none;align=center;fillColor=#E6E6E6;html=1;verticalAlign=middle;whiteSpace=wrap;rounded=0;" parent="1" vertex="1">
          <mxGeometry x="-548.8800000000001" y="1069" width="206.11" height="87" as="geometry" />
        </mxCell>
        <mxCell id="vTYYTcCQBsunpqbKioIv-146" value="&lt;font style=&quot;font-size: 18px;&quot;&gt;aspthbrsp18f001&lt;br/&gt;C9300-48P&lt;br/&gt;10.230.16.35&lt;/font&gt;" style="text;strokeColor=none;align=center;fillColor=#E6E6E6;html=1;verticalAlign=middle;whiteSpace=wrap;rounded=0;" parent="1" vertex="1">
          <mxGeometry x="-166.12" y="1310" width="270" height="87" as="geometry" />
        </mxCell>
        <mxCell id="vTYYTcCQBsunpqbKioIv-157" value="" style="line;html=1;strokeColor=#FF0000;fillColor=#FF0000;" parent="1" vertex="1">
          <mxGeometry x="-126.12" y="1265" width="181.45" height="10" as="geometry" />
        </mxCell>
        <mxCell id="vTYYTcCQBsunpqbKioIv-158" value="" style="line;html=1;strokeColor=#FF0000;fillColor=#FF0000;" parent="1" vertex="1">
          <mxGeometry x="-115.12" y="1235" width="190" height="10" as="geometry" />
        </mxCell>
        <mxCell id="vTYYTcCQBsunpqbKioIv-159" value="&lt;b&gt;&lt;font style=&quot;font-size: 14px;&quot;&gt;STACK&lt;/font&gt;&lt;/b&gt;" style="text;strokeColor=none;align=center;fillColor=none;html=1;verticalAlign=middle;whiteSpace=wrap;rounded=0;" parent="1" vertex="1">
          <mxGeometry x="-61.12" y="1240" width="60" height="30" as="geometry" />
        </mxCell>
        <mxCell id="vTYYTcCQBsunpqbKioIv-163" value="" style="ellipse;whiteSpace=wrap;html=1;strokeColor=default;fontFamily=Helvetica;fontSize=12;fontColor=default;fillColor=default;" parent="1" vertex="1">
          <mxGeometry x="-221.19" y="958" width="440" height="40" as="geometry" />
        </mxCell>
        <mxCell id="vTYYTcCQBsunpqbKioIv-167" value="&lt;font style=&quot;font-size: 18px;&quot;&gt;Po1&lt;/font&gt;" style="text;strokeColor=none;align=center;fillColor=none;html=1;verticalAlign=middle;whiteSpace=wrap;rounded=0;" parent="1" vertex="1">
          <mxGeometry x="-40.03" y="965" width="60" height="30" as="geometry" />
        </mxCell>
        <mxCell id="vTYYTcCQBsunpqbKioIv-168" value="&lt;font style=&quot;font-size: 14px;&quot;&gt;&lt;b&gt;WAAS CLUSTER&lt;/b&gt;&lt;/font&gt;" style="text;strokeColor=none;align=center;fillColor=none;html=1;verticalAlign=middle;whiteSpace=wrap;rounded=0;" parent="1" vertex="1">
          <mxGeometry x="-122" y="1011" width="230" height="30" as="geometry" />
        </mxCell>
        <mxCell id="vTYYTcCQBsunpqbKioIv-170" style="edgeStyle=none;shape=connector;rounded=0;orthogonalLoop=1;jettySize=auto;html=1;exitX=0.5;exitY=0.98;exitDx=0;exitDy=0;exitPerimeter=0;entryX=0.5;entryY=0;entryDx=0;entryDy=0;entryPerimeter=0;labelBackgroundColor=default;strokeColor=default;fontFamily=Helvetica;fontSize=12;fontColor=default;endArrow=none;endFill=0;strokeWidth=3;" parent="1" source="zVsSm3GNM5P4r3RZKPwx-26" target="zVsSm3GNM5P4r3RZKPwx-52" edge="1">
          <mxGeometry relative="1" as="geometry" />
        </mxCell>
        <mxCell id="zVsSm3GNM5P4r3RZKPwx-26" value="" style="shape=mxgraph.cisco.switches.workgroup_switch;html=1;dashed=0;fillColor=#10739E;strokeColor=#ffffff;strokeWidth=2;verticalLabelPosition=bottom;verticalAlign=top;fontFamily=Helvetica;fontSize=36;fontColor=#FFB366" parent="1" vertex="1">
          <mxGeometry x="100" y="-15" width="140" height="70" as="geometry" />
        </mxCell>
        <mxCell id="zVsSm3GNM5P4r3RZKPwx-3" value="" style="shape=mxgraph.cisco.switches.workgroup_switch;html=1;dashed=0;fillColor=#10739E;strokeColor=#ffffff;strokeWidth=2;verticalLabelPosition=bottom;verticalAlign=top;fontFamily=Helvetica;fontSize=36;fontColor=#FFB366" parent="1" vertex="1">
          <mxGeometry x="-220" y="-15" width="140" height="70" as="geometry" />
        </mxCell>
        <mxCell id="vTYYTcCQBsunpqbKioIv-174" style="edgeStyle=none;shape=connector;rounded=0;orthogonalLoop=1;jettySize=auto;html=1;exitX=1;exitY=0.5;exitDx=0;exitDy=0;exitPerimeter=0;labelBackgroundColor=default;strokeColor=default;fontFamily=Helvetica;fontSize=12;fontColor=default;endArrow=none;strokeWidth=3;endFill=0;" parent="1" edge="1">
          <mxGeometry relative="1" as="geometry">
            <mxPoint x="-111.42000000000007" y="248.5" as="sourcePoint" />
            <mxPoint x="134.78999999999996" y="248.5" as="targetPoint" />
          </mxGeometry>
        </mxCell>
        <mxCell id="vTYYTcCQBsunpqbKioIv-176" value="G1/0/20 " style="text;strokeColor=none;align=center;fillColor=none;html=1;verticalAlign=middle;whiteSpace=wrap;rounded=0;" parent="1" vertex="1">
          <mxGeometry x="-266" y="492.02" width="60" height="30" as="geometry" />
        </mxCell>
        <mxCell id="vTYYTcCQBsunpqbKioIv-177" value="G1/0/4 " style="text;strokeColor=none;align=center;fillColor=none;html=1;verticalAlign=middle;whiteSpace=wrap;rounded=0;" parent="1" vertex="1">
          <mxGeometry x="-305.99999999999994" y="540" width="60" height="30" as="geometry" />
        </mxCell>
        <mxCell id="vTYYTcCQBsunpqbKioIv-178" value="G1/0/21 " style="text;strokeColor=none;align=center;fillColor=none;html=1;verticalAlign=middle;whiteSpace=wrap;rounded=0;" parent="1" vertex="1">
          <mxGeometry x="-352.23" y="656" width="60" height="30" as="geometry" />
        </mxCell>
        <mxCell id="vTYYTcCQBsunpqbKioIv-181" value="&lt;font style=&quot;font-size: 18px;&quot;&gt;wrthbrsp18f02&lt;br/&gt;vEdge 1000 &lt;br/&gt;10.230.212.72&lt;/font&gt;" style="text;strokeColor=none;align=center;fillColor=#E6E6E6;html=1;verticalAlign=middle;whiteSpace=wrap;rounded=0;" parent="1" vertex="1">
          <mxGeometry x="1036" y="480.98" width="177.83" height="85" as="geometry" />
        </mxCell>
        <mxCell id="vTYYTcCQBsunpqbKioIv-182" value="G2/0/20 " style="text;strokeColor=none;align=center;fillColor=none;html=1;verticalAlign=middle;whiteSpace=wrap;rounded=0;" parent="1" vertex="1">
          <mxGeometry x="205.22" y="495.02" width="60" height="30" as="geometry" />
        </mxCell>
        <mxCell id="vTYYTcCQBsunpqbKioIv-183" value="G2/0/22" style="text;strokeColor=none;align=center;fillColor=none;html=1;verticalAlign=middle;whiteSpace=wrap;rounded=0;" parent="1" vertex="1">
          <mxGeometry x="253.00000000000006" y="543" width="60" height="30" as="geometry" />
        </mxCell>
        <mxCell id="vTYYTcCQBsunpqbKioIv-184" value="G2/0/21 " style="text;strokeColor=none;align=center;fillColor=none;html=1;verticalAlign=middle;whiteSpace=wrap;rounded=0;" parent="1" vertex="1">
          <mxGeometry x="288.11999999999995" y="658" width="60" height="30" as="geometry" />
        </mxCell>
        <mxCell id="vTYYTcCQBsunpqbKioIv-23" value="" style="shape=mxgraph.cisco.switches.layer_3_switch;html=1;dashed=0;fillColor=#10739E;strokeColor=#ffffff;strokeWidth=2;verticalLabelPosition=bottom;verticalAlign=top;fontFamily=Helvetica;fontSize=36;fontColor=#FFB366" parent="1" vertex="1">
          <mxGeometry x="83.96" y="723" width="115.08" height="115" as="geometry" />
        </mxCell>
        <mxCell id="vTYYTcCQBsunpqbKioIv-22" value="" style="shape=mxgraph.cisco.switches.layer_3_switch;html=1;dashed=0;fillColor=#10739E;strokeColor=#ffffff;strokeWidth=2;verticalLabelPosition=bottom;verticalAlign=top;fontFamily=Helvetica;fontSize=36;fontColor=#FFB366" parent="1" vertex="1">
          <mxGeometry x="-228.5" y="723" width="115.08" height="115" as="geometry" />
        </mxCell>
        <mxCell id="vTYYTcCQBsunpqbKioIv-185" value="G1/0/18" style="text;strokeColor=none;align=center;fillColor=none;html=1;verticalAlign=middle;whiteSpace=wrap;rounded=0;" parent="1" vertex="1">
          <mxGeometry x="-353.23" y="847" width="60" height="30" as="geometry" />
        </mxCell>
        <mxCell id="vTYYTcCQBsunpqbKioIv-186" value="G1/0/19" style="text;strokeColor=none;align=center;fillColor=none;html=1;verticalAlign=middle;whiteSpace=wrap;rounded=0;" parent="1" vertex="1">
          <mxGeometry x="-343.77000000000004" y="894" width="60" height="30" as="geometry" />
        </mxCell>
        <mxCell id="vTYYTcCQBsunpqbKioIv-187" value="V2/0 " style="text;strokeColor=none;align=center;fillColor=none;html=1;verticalAlign=middle;whiteSpace=wrap;rounded=0;" parent="1" vertex="1">
          <mxGeometry x="-509" y="961" width="60" height="30" as="geometry" />
        </mxCell>
        <mxCell id="vTYYTcCQBsunpqbKioIv-188" value="V1/0-Mgmt " style="text;strokeColor=none;align=center;fillColor=none;html=1;verticalAlign=middle;whiteSpace=wrap;rounded=0;" parent="1" vertex="1">
          <mxGeometry x="-361.51" y="991" width="78.57" height="30" as="geometry" />
        </mxCell>
        <mxCell id="vTYYTcCQBsunpqbKioIv-189" value="G2/0/18" style="text;strokeColor=none;align=center;fillColor=none;html=1;verticalAlign=middle;whiteSpace=wrap;rounded=0;" parent="1" vertex="1">
          <mxGeometry x="289.13" y="849" width="60" height="30" as="geometry" />
        </mxCell>
        <mxCell id="vTYYTcCQBsunpqbKioIv-190" value="G2/0/19" style="text;strokeColor=none;align=center;fillColor=none;html=1;verticalAlign=middle;whiteSpace=wrap;rounded=0;" parent="1" vertex="1">
          <mxGeometry x="279.84" y="894" width="60" height="30" as="geometry" />
        </mxCell>
        <mxCell id="vTYYTcCQBsunpqbKioIv-191" value="V2/0 " style="text;strokeColor=none;align=center;fillColor=none;html=1;verticalAlign=middle;whiteSpace=wrap;rounded=0;" parent="1" vertex="1">
          <mxGeometry x="437.23" y="962" width="60" height="30" as="geometry" />
        </mxCell>
        <mxCell id="vTYYTcCQBsunpqbKioIv-192" value="V1/0-Mgmt " style="text;strokeColor=none;align=center;fillColor=none;html=1;verticalAlign=middle;whiteSpace=wrap;rounded=0;" parent="1" vertex="1">
          <mxGeometry x="279.85" y="992" width="78.57" height="30" as="geometry" />
        </mxCell>
        <mxCell id="vTYYTcCQBsunpqbKioIv-193" value="G1/0/47" style="text;strokeColor=none;align=center;fillColor=none;html=1;verticalAlign=middle;whiteSpace=wrap;rounded=0;" parent="1" vertex="1">
          <mxGeometry x="-252.41000000000005" y="923" width="60" height="30" as="geometry" />
        </mxCell>
        <mxCell id="vTYYTcCQBsunpqbKioIv-194" value="G1/0/48" style="text;strokeColor=none;align=center;fillColor=none;html=1;verticalAlign=middle;whiteSpace=wrap;rounded=0;" parent="1" vertex="1">
          <mxGeometry x="-148.00000000000006" y="924" width="60" height="30" as="geometry" />
        </mxCell>
        <mxCell id="vTYYTcCQBsunpqbKioIv-195" value="G2/0/47" style="text;strokeColor=none;align=center;fillColor=none;html=1;verticalAlign=middle;whiteSpace=wrap;rounded=0;" parent="1" vertex="1">
          <mxGeometry x="76.78999999999996" y="923" width="60" height="30" as="geometry" />
        </mxCell>
        <mxCell id="vTYYTcCQBsunpqbKioIv-196" value="G2/0/48" style="text;strokeColor=none;align=center;fillColor=none;html=1;verticalAlign=middle;whiteSpace=wrap;rounded=0;" parent="1" vertex="1">
          <mxGeometry x="179.99999999999994" y="923" width="60" height="30" as="geometry" />
        </mxCell>
        <mxCell id="vTYYTcCQBsunpqbKioIv-198" value="G1/0/47" style="text;strokeColor=none;align=center;fillColor=none;html=1;verticalAlign=middle;whiteSpace=wrap;rounded=0;" parent="1" vertex="1">
          <mxGeometry x="-252.41000000000005" y="1118" width="60" height="30" as="geometry" />
        </mxCell>
        <mxCell id="vTYYTcCQBsunpqbKioIv-199" value="G1/0/48" style="text;strokeColor=none;align=center;fillColor=none;html=1;verticalAlign=middle;whiteSpace=wrap;rounded=0;" parent="1" vertex="1">
          <mxGeometry x="-148.00000000000006" y="1120" width="60" height="30" as="geometry" />
        </mxCell>
        <mxCell id="vTYYTcCQBsunpqbKioIv-200" value="G2/0/47" style="text;strokeColor=none;align=center;fillColor=none;html=1;verticalAlign=middle;whiteSpace=wrap;rounded=0;" parent="1" vertex="1">
          <mxGeometry x="76.78999999999996" y="1118" width="60" height="30" as="geometry" />
        </mxCell>
        <mxCell id="vTYYTcCQBsunpqbKioIv-201" value="G2/0/48" style="text;strokeColor=none;align=center;fillColor=none;html=1;verticalAlign=middle;whiteSpace=wrap;rounded=0;" parent="1" vertex="1">
          <mxGeometry x="179.99999999999994" y="1118" width="60" height="30" as="geometry" />
        </mxCell>
        <mxCell id="AJ04CWNVLewOX_fs8tJ3-2" value="" style="rounded=0;whiteSpace=wrap;html=1;" vertex="1" parent="1">
          <mxGeometry x="-1130" y="1530" width="2350" height="170" as="geometry" />
        </mxCell>
        <mxCell id="AJ04CWNVLewOX_fs8tJ3-4" value="" style="rounded=0;whiteSpace=wrap;html=1;" vertex="1" parent="1">
          <mxGeometry x="-1110" y="1577.5" width="260" height="75" as="geometry" />
        </mxCell>
        <object label="&lt;font style=&quot;font-size: 30px;&quot;&gt;LEGENDA&lt;/font&gt;" id="AJ04CWNVLewOX_fs8tJ3-5">
          <mxCell style="text;html=1;strokeColor=none;fillColor=none;align=center;verticalAlign=middle;whiteSpace=wrap;rounded=0;fontColor=#000000;fontSize=30;fontStyle=1" vertex="1" parent="1">
            <mxGeometry x="-1095" y="1600" width="230" height="30" as="geometry" />
          </mxCell>
        </object>
        <mxCell id="AJ04CWNVLewOX_fs8tJ3-7" value="" style="whiteSpace=wrap;html=1;aspect=fixed;rounded=0;fontFamily=Helvetica;fontSize=12;fontColor=default;fillColor=none;gradientColor=none;" vertex="1" parent="1">
          <mxGeometry x="-805" y="1545" width="140" height="140" as="geometry" />
        </mxCell>
        <mxCell id="AJ04CWNVLewOX_fs8tJ3-6" value="" style="shape=mxgraph.cisco.security.firewall;html=1;pointerEvents=1;dashed=0;fillColor=#036897;strokeColor=#ffffff;strokeWidth=2;verticalLabelPosition=bottom;verticalAlign=top;align=center;outlineConnect=0;" vertex="1" parent="1">
          <mxGeometry x="-755" y="1560" width="40" height="85" as="geometry" />
        </mxCell>
        <mxCell id="AJ04CWNVLewOX_fs8tJ3-8" value="Firewall" style="text;html=1;strokeColor=none;fillColor=none;align=center;verticalAlign=middle;whiteSpace=wrap;rounded=0;fontSize=15;fontFamily=Helvetica;fontColor=default;fontStyle=1" vertex="1" parent="1">
          <mxGeometry x="-765" y="1652.5" width="60" height="30" as="geometry" />
        </mxCell>
        <mxCell id="AJ04CWNVLewOX_fs8tJ3-10" value="" style="whiteSpace=wrap;html=1;aspect=fixed;rounded=0;fontFamily=Helvetica;fontSize=12;fontColor=default;fillColor=none;gradientColor=none;" vertex="1" parent="1">
          <mxGeometry x="-640" y="1545" width="140" height="140" as="geometry" />
        </mxCell>
        <mxCell id="AJ04CWNVLewOX_fs8tJ3-11" value="" style="shape=mxgraph.cisco.switches.layer_3_switch;html=1;dashed=0;fillColor=#10739E;strokeColor=#ffffff;strokeWidth=2;verticalLabelPosition=bottom;verticalAlign=top;fontFamily=Helvetica;fontSize=36;fontColor=#FFB366" vertex="1" parent="1">
          <mxGeometry x="-608.77" y="1560" width="77.54" height="82.5" as="geometry" />
        </mxCell>
        <mxCell id="AJ04CWNVLewOX_fs8tJ3-12" value="Switch L3" style="text;html=1;strokeColor=none;fillColor=none;align=center;verticalAlign=middle;whiteSpace=wrap;rounded=0;fontSize=15;fontFamily=Helvetica;fontColor=default;fontStyle=1" vertex="1" parent="1">
          <mxGeometry x="-610" y="1652.5" width="80" height="30" as="geometry" />
        </mxCell>
        <mxCell id="AJ04CWNVLewOX_fs8tJ3-13" value="" style="shape=mxgraph.cisco.switches.workgroup_switch;html=1;dashed=0;fillColor=#10739E;strokeColor=#ffffff;strokeWidth=2;verticalLabelPosition=bottom;verticalAlign=top;fontFamily=Helvetica;fontSize=36;fontColor=#FFB366" vertex="1" parent="1">
          <mxGeometry x="-459.06" y="1575" width="110" height="52.5" as="geometry" />
        </mxCell>
        <mxCell id="AJ04CWNVLewOX_fs8tJ3-14" value="" style="whiteSpace=wrap;html=1;aspect=fixed;rounded=0;fontFamily=Helvetica;fontSize=12;fontColor=default;fillColor=none;gradientColor=none;" vertex="1" parent="1">
          <mxGeometry x="-474.06" y="1545" width="140" height="140" as="geometry" />
        </mxCell>
        <mxCell id="AJ04CWNVLewOX_fs8tJ3-15" value="Switch L2" style="text;html=1;strokeColor=none;fillColor=none;align=center;verticalAlign=middle;whiteSpace=wrap;rounded=0;fontSize=15;fontFamily=Helvetica;fontColor=default;fontStyle=1" vertex="1" parent="1">
          <mxGeometry x="-444.06" y="1652.5" width="80" height="30" as="geometry" />
        </mxCell>
        <mxCell id="AJ04CWNVLewOX_fs8tJ3-16" value="" style="shape=mxgraph.cisco.routers.router;html=1;pointerEvents=1;dashed=0;fillColor=#036897;strokeColor=#ffffff;strokeWidth=2;verticalLabelPosition=bottom;verticalAlign=top;align=center;outlineConnect=0;" vertex="1" parent="1">
          <mxGeometry x="-283" y="1575" width="93.99" height="60" as="geometry" />
        </mxCell>
        <mxCell id="AJ04CWNVLewOX_fs8tJ3-17" value="" style="whiteSpace=wrap;html=1;aspect=fixed;rounded=0;fontFamily=Helvetica;fontSize=12;fontColor=default;fillColor=none;gradientColor=none;" vertex="1" parent="1">
          <mxGeometry x="-310" y="1545" width="140" height="140" as="geometry" />
        </mxCell>
        <mxCell id="AJ04CWNVLewOX_fs8tJ3-18" value="Router" style="text;html=1;strokeColor=none;fillColor=none;align=center;verticalAlign=middle;whiteSpace=wrap;rounded=0;fontSize=15;fontFamily=Helvetica;fontColor=default;fontStyle=1" vertex="1" parent="1">
          <mxGeometry x="-276" y="1652.5" width="80" height="30" as="geometry" />
        </mxCell>
        <mxCell id="AJ04CWNVLewOX_fs8tJ3-19" value="" style="whiteSpace=wrap;html=1;aspect=fixed;rounded=0;fontFamily=Helvetica;fontSize=12;fontColor=default;fillColor=none;gradientColor=none;" vertex="1" parent="1">
          <mxGeometry x="-148" y="1545" width="140" height="140" as="geometry" />
        </mxCell>
        <mxCell id="AJ04CWNVLewOX_fs8tJ3-20" value="" style="shape=mxgraph.cisco.misc.wae;html=1;pointerEvents=1;dashed=0;fillColor=#036897;strokeColor=#ffffff;strokeWidth=2;verticalLabelPosition=bottom;verticalAlign=top;align=center;outlineConnect=0;fontFamily=Helvetica;fontSize=12;fontColor=default;" vertex="1" parent="1">
          <mxGeometry x="-119.5" y="1577.5" width="83" height="57" as="geometry" />
        </mxCell>
        <mxCell id="AJ04CWNVLewOX_fs8tJ3-21" value="WAAS" style="text;html=1;strokeColor=none;fillColor=none;align=center;verticalAlign=middle;whiteSpace=wrap;rounded=0;fontSize=15;fontFamily=Helvetica;fontColor=default;fontStyle=1" vertex="1" parent="1">
          <mxGeometry x="-118" y="1652.5" width="80" height="30" as="geometry" />
        </mxCell>
        <mxCell id="AJ04CWNVLewOX_fs8tJ3-22" value="" style="whiteSpace=wrap;html=1;aspect=fixed;rounded=0;fontFamily=Helvetica;fontSize=12;fontColor=default;fillColor=none;gradientColor=none;" vertex="1" parent="1">
          <mxGeometry x="12.810000000000002" y="1545" width="140" height="140" as="geometry" />
        </mxCell>
        <mxCell id="AJ04CWNVLewOX_fs8tJ3-23" style="edgeStyle=none;shape=connector;rounded=0;orthogonalLoop=1;jettySize=auto;html=1;exitX=1;exitY=0.5;exitDx=0;exitDy=0;exitPerimeter=0;labelBackgroundColor=default;strokeColor=default;fontFamily=Helvetica;fontSize=12;fontColor=default;endArrow=none;strokeWidth=3;endFill=0;" edge="1" parent="1">
          <mxGeometry relative="1" as="geometry">
            <mxPoint x="41.19999999999992" y="1602.08" as="sourcePoint" />
            <mxPoint x="124.41" y="1602.5" as="targetPoint" />
          </mxGeometry>
        </mxCell>
        <mxCell id="AJ04CWNVLewOX_fs8tJ3-24" value="UTP" style="text;html=1;strokeColor=none;fillColor=none;align=center;verticalAlign=middle;whiteSpace=wrap;rounded=0;fontSize=15;fontFamily=Helvetica;fontColor=default;fontStyle=1" vertex="1" parent="1">
          <mxGeometry x="42.81" y="1652.5" width="80" height="30" as="geometry" />
        </mxCell>
        <mxCell id="AJ04CWNVLewOX_fs8tJ3-25" value="" style="whiteSpace=wrap;html=1;aspect=fixed;rounded=0;fontFamily=Helvetica;fontSize=12;fontColor=default;fillColor=none;gradientColor=none;" vertex="1" parent="1">
          <mxGeometry x="170" y="1545" width="140" height="140" as="geometry" />
        </mxCell>
        <mxCell id="AJ04CWNVLewOX_fs8tJ3-26" value="" style="line;html=1;strokeColor=#FF0000;fillColor=#FF0000;" vertex="1" parent="1">
          <mxGeometry x="195" y="1597.5" width="90" height="10" as="geometry" />
        </mxCell>
        <mxCell id="AJ04CWNVLewOX_fs8tJ3-28" value="Stack" style="text;html=1;strokeColor=none;fillColor=none;align=center;verticalAlign=middle;whiteSpace=wrap;rounded=0;fontSize=15;fontFamily=Helvetica;fontColor=default;fontStyle=1" vertex="1" parent="1">
          <mxGeometry x="200" y="1652.5" width="80" height="30" as="geometry" />
        </mxCell>
      </root>
    </mxGraphModel>
  </diagram>
</mxfile>
